<svg width="37" height="35" viewBox="0 0 37 35" fill="none" xmlns="http://www.w3.org/2000/svg">
<g clip-path="url(#clip0_0:74)">
<path d="M31.66 30.06C30.89 25.31 30.2 20.55 29.31 15.82C28.79 13.02 26.72 10.16 22.75 10.12C19.66 10.09 16.58 10.09 13.49 10.12C9.52 10.16 7.46 13.02 6.93 15.82C6.04 20.55 5.36 25.31 4.58 30.06M4.42 30.24C3.47 30.33 2.52 30.41 1.46 30.51C0.55 31.61 0.55 32.79 1.54 33.98C12.62 33.98 23.66 33.98 34.74 33.98C35.73 32.79 35.73 31.61 34.74 30.42C25.38 30.42 16.06 30.42 6.74 30.41C6.09 30.41 5.43 30.3 4.78 30.24M18.31 23.83C19.08 23.3 20.03 22.9 20.59 22.2C21.73 20.77 21.29 18.96 19.74 17.96C18.48 17.14 16.34 17.59 15.47 18.85C14.64 20.05 15.09 22.49 16.56 23.06C18.13 23.66 18.23 24.64 18.15 25.98C18.07 27.34 18.13 28.71 18.13 30.08M18.13 0.5C18.13 2.99 18.13 5.49 18.13 7.98M4.42 20.45C3.11 20.51 1.81 20.57 0.5 20.63M35.76 20.62C34.45 20.56 33.15 20.5 31.84 20.44M4.77 7.45C5.78 8.46 6.79 9.47 7.8 10.48M31.49 7.45C30.48 8.46 29.47 9.47 28.46 10.48" stroke="#2A2D5C" stroke-miterlimit="10" stroke-linecap="round" stroke-linejoin="round"/>
</g>
<defs>
<clipPath id="clip0_0:74">
<rect width="36.26" height="34.48" fill="white"/>
</clipPath>
</defs>
</svg>
