<?xml version="1.0" standalone="no"?>
<!DOCTYPE svg PUBLIC "-//W3C//DTD SVG 20010904//EN"
 "http://www.w3.org/TR/2001/REC-SVG-20010904/DTD/svg10.dtd">
<svg version="1.0" xmlns="http://www.w3.org/2000/svg"
 width="366.000000pt" height="408.000000pt" viewBox="0 0 366.000000 408.000000"
 preserveAspectRatio="xMidYMid meet">

<g transform="translate(0.000000,408.000000) scale(0.100000,-0.100000)"
fill="url(#linear-gradient)" stroke="none">
<path d="M1375 4069 c-216 -44 -375 -236 -375 -454 0 -133 49 -245 146 -334
307 -280 804 -74 804 334 0 197 -120 362 -314 434 -69 26 -189 35 -261 20z
m240 -179 c191 -93 233 -339 84 -488 -57 -58 -120 -84 -209 -90 -96 -5 -170
21 -234 82 -65 63 -88 116 -94 209 -4 72 -2 82 27 142 36 73 93 126 168 156
69 28 190 23 258 -11z"/>
<path d="M1548 3071 c-62 -13 -117 -56 -144 -114 -13 -29 -24 -63 -24 -76 0
-30 247 -1365 261 -1409 15 -46 57 -92 104 -113 37 -17 78 -19 585 -19 l545 0
190 -392 c105 -216 197 -406 206 -423 54 -101 225 -127 320 -48 44 38 69 93
69 155 -1 48 -22 99 -228 536 -140 296 -239 494 -257 514 -61 64 -47 62 -630
68 l-529 5 -83 445 c-45 245 -83 451 -83 458 0 9 107 12 500 12 539 0 542 0
598 53 72 66 84 192 26 264 -17 21 -51 49 -75 63 l-44 25 -635 2 c-349 0 -652
-2 -672 -6z m1286 -167 c19 -18 21 -55 4 -72 -9 -9 -148 -12 -565 -12 l-554 0
-24 -25 c-14 -13 -25 -32 -25 -41 0 -10 45 -260 100 -555 55 -296 100 -543
100 -549 0 -6 11 -22 25 -35 l24 -25 559 0 c431 0 562 -3 574 -12 20 -17 448
-930 448 -957 0 -11 -9 -25 -21 -31 -50 -27 -53 -23 -273 430 -133 273 -219
439 -234 451 -24 18 -48 19 -592 19 -444 0 -570 3 -578 13 -6 7 -68 320 -138
696 l-127 685 23 18 c21 17 57 18 640 18 549 0 620 -2 634 -16z"/>
<path d="M1095 2574 c-792 -141 -1277 -929 -1029 -1674 148 -445 522 -769
1007 -871 131 -28 367 -31 503 -6 180 33 366 107 519 209 101 67 287 250 352
348 100 149 178 340 204 500 23 144 3 160 -201 160 -139 0 -194 -12 -203 -47
-3 -10 -8 -34 -12 -53 -56 -302 -293 -570 -599 -675 -553 -190 -1141 174
-1206 747 -18 154 16 331 89 476 133 261 418 458 706 489 66 7 105 35 105 76
0 13 -11 85 -25 158 -35 187 -43 193 -210 163z m49 -176 c17 -66 13 -71 -84
-95 -50 -12 -136 -44 -193 -71 -534 -256 -753 -873 -493 -1390 138 -274 388
-471 701 -553 78 -21 113 -24 260 -24 147 0 182 3 260 24 211 55 377 152 526
309 125 130 211 279 249 430 l14 52 53 0 53 0 -7 -32 c-11 -60 -64 -202 -100
-268 -208 -384 -607 -620 -1048 -620 -511 0 -964 322 -1118 795 -203 619 164
1272 813 1446 90 24 106 23 114 -3z"/>
<linearGradient id="linear-gradient">
    
    <stop offset="0.04%%" stop-color="#2A2D5C"/>
    <stop offset="98.9%" stop-color="#A0B3D5"/>

</linearGradient>
</g>
</svg>
