<?xml version="1.0" standalone="no"?>
<!DOCTYPE svg PUBLIC "-//W3C//DTD SVG 20010904//EN"
 "http://www.w3.org/TR/2001/REC-SVG-20010904/DTD/svg10.dtd">
<svg version="1.0" xmlns="http://www.w3.org/2000/svg"
 width="449.000000pt" height="438.000000pt" viewBox="0 0 449.000000 438.000000"
 preserveAspectRatio="xMidYMid meet">

<g transform="translate(0.000000,438.000000) scale(0.100000,-0.100000)"
 stroke="none">
<path d="M2674 4369 c-104 -8 -232 -34 -344 -71 -325 -106 -636 -368 -795
-670 l-48 -92 -23 85 c-41 156 -122 306 -238 441 -67 79 -110 108 -157 108
-28 0 -43 -10 -92 -61 -193 -203 -299 -473 -299 -759 0 -250 80 -489 230 -679
l58 -74 -253 -246 c-139 -135 -253 -249 -253 -253 0 -3 21 -25 46 -47 l46 -41
250 243 c137 133 253 243 258 245 4 2 40 -22 80 -52 410 -308 1017 -297 1427
26 118 93 140 144 87 207 -46 55 -185 151 -298 206 -104 51 -272 104 -335 106
-19 0 -6 10 54 38 402 190 682 525 780 934 29 120 47 318 33 359 -10 28 -62
59 -95 57 -10 -1 -63 -5 -119 -10z m36 -201 c0 -54 -36 -207 -69 -299 -154
-421 -573 -744 -1020 -785 l-68 -7 9 69 c21 169 88 346 188 497 186 282 490
480 829 541 123 23 131 22 131 -16z m-1571 -275 c234 -313 251 -719 45 -1059
-49 -80 -54 -109 -24 -147 28 -35 65 -42 109 -19 157 81 207 104 283 126 186
54 379 54 567 0 98 -28 224 -88 294 -140 58 -42 57 -44 -49 -110 -389 -243
-902 -184 -1229 140 -294 291 -365 732 -178 1094 39 74 113 182 125 182 3 0
29 -30 57 -67z" fill="url(#linear-gradient)"/>
<path d="M2006 2060 c-99 -39 -156 -123 -156 -228 0 -102 45 -177 135 -225 38
-21 55 -22 387 -27 330 -5 348 -6 374 -26 88 -65 98 -171 22 -241 -30 -28
-1032 -287 -1087 -281 -26 3 -158 81 -481 285 -245 154 -496 314 -557 356
-135 92 -194 112 -299 104 -109 -10 -176 -39 -244 -107 -72 -72 -100 -140
-100 -240 0 -127 54 -222 171 -300 33 -22 398 -277 812 -569 484 -340 766
-533 792 -540 106 -29 151 -21 875 158 1549 382 1632 401 1722 401 57 0 87 16
103 55 20 45 22 813 3 848 -19 36 -38 44 -122 52 -163 14 -273 64 -509 232
-265 189 -396 254 -585 293 -94 19 -135 20 -654 20 -521 -1 -556 -2 -602 -20z
m1254 -174 c154 -44 271 -108 520 -286 191 -136 314 -196 460 -224 l65 -12 3
-306 2 -307 -47 -6 c-69 -10 -249 -51 -643 -149 -1401 -345 -1698 -416 -1740
-416 -38 0 -58 7 -96 33 -154 106 -1515 1062 -1543 1084 -48 37 -75 103 -66
161 10 69 70 125 149 142 78 16 109 6 211 -67 44 -31 300 -195 568 -364 458
-288 492 -308 546 -314 62 -7 22 -16 906 210 143 37 274 76 292 86 17 11 46
36 64 56 144 165 95 409 -103 515 -42 22 -51 23 -391 28 l-349 5 -24 28 c-13
15 -24 36 -24 45 0 24 28 62 54 72 12 5 264 8 571 7 499 -3 556 -5 615 -21z " fill="url(#linear-gradient)" />
<linearGradient id="linear-gradient">
	
  <stop offset="0.04%%" stop-color="#2A2D5C"/>
  <stop offset="98.9%" stop-color="#A0B3D5"/>

  </linearGradient>

</g>
</svg>
