<svg width="27" height="39" viewBox="0 0 27 39" fill="none" xmlns="http://www.w3.org/2000/svg">
	<g>
	<path d="M13.23 7.91C11.23 8.41 9.1 7.82 7.15 9.28C5.18 10.75 4.16 12.5 4.13 14.76C4.04 22.17 4.09 29.58 4.1 36.99C4.1 37.13 4.23 37.27 4.35 37.51C9.14 37.51 13.99 37.51 19.04 37.51C19.04 34.71 19.04 32.01 19.04 29.31C19.04 24.67 19.04 20.03 19.04 15.39C19.04 11.73 17.74 9.89 14.27 8.52C13.87 8.36 13.55 8 13.54 7.99C13.54 5.35 13.54 3 13.54 0.75C12.19 0.75 11.14 0.75 9.91 0.75C9.91 3.13 9.91 5.42 9.91 7.71M16.76 6.46C17.42 7.98 18.92 7.6 20.09 7.89C22.12 8.38 24.2 8.7 26.42 9.12C26.42 6.53 26.42 4.31 26.42 1.65C23.04 2.36 19.85 3.03 16.66 3.7C16.75 3.86 16.84 4.02 16.93 4.18C16.88 4.87 16.82 5.56 16.77 6.24M9.49 4.38C7.97 4.31 6.44 4.21 4.92 4.18C1.92 4.11 0.0899996 6.56 0.57 10.09C1.25 10.09 1.94 10.09 2.62 10.09C3.05 6.91 3.58 6.46 6.79 6.46C7.69 6.46 8.59 6.46 9.49 6.46M18.63 35.12C13.92 35.12 9.21 35.12 4.51 35.12M7.62 3.97C8.11 2.44 8.03 1.15 5.92 0.5C5.32 1.01 4.64 1.58 3.98 2.13C4.28 2.87 4.5 3.42 4.72 3.97" stroke="url(#paint0_linear)" stroke-miterlimit="10" stroke-linecap="round" stroke-linejoin="round"/>
<defs>
<linearGradient id="paint0_linear" x1="0.504079" y1="18.9352" x2="26.134" y2="18.9352" gradientUnits="userSpaceOnUse">
<stop stop-color="#2A2D5C"/>
<stop offset="1" stop-color="#A0B3D5"/>
</linearGradient>
</defs>	
	</g>

</svg>
