<?xml version="1.0" standalone="no"?>
<!DOCTYPE svg PUBLIC "-//W3C//DTD SVG 20010904//EN"
 "http://www.w3.org/TR/2001/REC-SVG-20010904/DTD/svg10.dtd">
<svg version="1.0" xmlns="http://www.w3.org/2000/svg"
 width="393.000000pt" height="382.000000pt" viewBox="0 0 393.000000 382.000000"
 preserveAspectRatio="xMidYMid meet">

<g transform="translate(0.000000,382.000000) scale(0.100000,-0.100000)"
fill="url(#linear-gradient)" stroke="none">
<path d="M1772 3809 c-782 -75 -1441 -596 -1681 -1329 -275 -839 89 -1759 875
-2211 308 -178 636 -263 1004 -262 199 1 321 15 492 58 743 189 1311 790 1439
1525 129 742 -198 1483 -841 1902 -378 247 -839 361 -1288 317z m542 -178
c359 -74 662 -231 914 -475 269 -259 433 -554 509 -915 24 -112 27 -149 27
-326 1 -221 -16 -335 -75 -525 -41 -130 -154 -355 -236 -470 -296 -413 -766
-690 -1275 -750 -151 -18 -421 -8 -562 20 -1034 205 -1672 1209 -1391 2190
182 634 730 1126 1391 1249 157 29 158 29 389 26 162 -3 233 -8 309 -24z"/>
<path d="M2773 3190 c-15 -6 -82 -128 -237 -433 -119 -233 -216 -434 -216
-447 0 -13 21 -42 55 -74 66 -64 94 -122 95 -193 0 -39 5 -58 23 -78 l22 -26
450 -14 c248 -8 464 -15 481 -15 57 0 77 27 86 116 31 318 -106 662 -366 919
-89 88 -201 175 -287 224 -59 33 -71 35 -106 21z m264 -344 c56 -54 125 -131
153 -172 60 -87 131 -234 153 -319 16 -61 37 -206 37 -259 l0 -29 -247 7
c-137 3 -305 9 -375 13 l-127 6 -17 56 c-21 72 -37 104 -79 150 l-34 37 170
337 170 337 47 -32 c26 -18 93 -77 149 -132z"/>
<path d="M1038 3141 c-270 -182 -478 -483 -549 -796 -17 -75 -18 -354 -1 -411
22 -74 4 -73 535 -26 552 49 512 37 519 161 5 89 31 143 92 198 26 23 36 39
36 61 0 35 -444 801 -486 840 -37 33 -64 28 -146 -27z m266 -473 l186 -318
-35 -45 c-32 -42 -75 -154 -75 -194 0 -15 -42 -21 -366 -49 -201 -18 -370 -29
-376 -26 -18 11 -3 246 22 339 40 149 134 317 251 449 59 67 191 178 199 169
4 -5 91 -151 194 -325z"/>
<path d="M1893 2306 c-136 -44 -237 -158 -264 -299 -30 -157 57 -325 209 -399
62 -31 73 -33 172 -33 97 0 110 2 170 31 83 39 145 101 184 184 28 58 31 75
31 155 0 80 -3 97 -31 155 -40 83 -101 144 -184 183 -55 27 -79 32 -155 34
-57 2 -106 -2 -132 -11z m225 -165 c100 -51 148 -178 106 -279 -68 -163 -303
-188 -401 -43 -88 130 -24 290 135 342 39 12 115 3 160 -20z"/>
<path d="M1742 1543 c-17 -7 -561 -718 -572 -749 -16 -40 5 -70 91 -134 240
-178 547 -256 870 -220 137 15 306 56 412 100 77 32 107 58 107 93 0 11 -106
206 -236 434 -259 455 -251 445 -332 424 -82 -21 -144 -14 -218 24 -63 33 -93
40 -122 28z m176 -213 c34 -7 85 -10 112 -7 l49 6 186 -324 c102 -179 185
-327 185 -330 0 -2 -37 -16 -82 -29 -273 -82 -550 -78 -783 13 -81 31 -216
108 -222 126 -1 6 96 139 218 297 l220 288 27 -14 c15 -8 55 -20 90 -26z"/>
<linearGradient id="linear-gradient">
    
    <stop offset="0.04%%" stop-color="#2A2D5C"/>
    <stop offset="98.9%" stop-color="#A0B3D5"/>

</linearGradient>
</g>
</svg>
