<?xml version="1.0" standalone="no"?>
<!DOCTYPE svg PUBLIC "-//W3C//DTD SVG 20010904//EN"
 "http://www.w3.org/TR/2001/REC-SVG-20010904/DTD/svg10.dtd">
<svg version="1.0" xmlns="http://www.w3.org/2000/svg"
 width="374.000000pt" height="462.000000pt" viewBox="0 0 374.000000 462.000000"
 preserveAspectRatio="xMidYMid meet">

<g transform="translate(0.000000,462.000000) scale(0.100000,-0.100000)"
fill="url(#linear-gradient)" stroke="none">

<path d="M2343 4605 c-37 -16 -48 -34 -63 -101 -53 -231 -18 -395 111 -530
l62 -64 -1226 0 -1227 0 0 -1955 0 -1955 1753 2 1752 3 3 1628 2 1627 73 0
c53 0 80 5 103 19 63 38 66 134 7 181 -21 16 -41 20 -104 20 l-79 0 -2 213 -3
212 -233 3 -234 2 33 37 c91 104 120 275 65 382 -39 75 -132 134 -243 152
-171 29 -308 -60 -362 -234 -17 -58 -19 -60 -31 -38 -20 39 -23 130 -6 204 28
121 17 165 -50 193 -41 17 -60 17 -101 -1z m77 -92 c0 -9 -7 -55 -16 -102 -30
-158 2 -264 109 -364 l62 -59 3 34 c14 184 43 269 111 331 87 79 265 62 344
-33 77 -91 48 -253 -64 -354 -62 -56 -121 -76 -221 -76 -43 0 -78 -3 -78 -6 0
-3 16 -33 36 -67 148 -253 422 -392 821 -415 111 -7 118 -8 121 -29 4 -31 -24
-36 -137 -28 -248 18 -454 81 -611 188 -119 81 -249 239 -284 345 -13 39 -23
51 -61 71 -69 36 -144 116 -179 190 -29 61 -31 74 -31 176 0 61 6 134 13 163
12 45 17 52 38 52 16 0 24 -6 24 -17z m168 -775 c126 -220 380 -383 699 -447
l88 -18 3 -1577 2 -1576 -1630 0 -1630 0 0 1835 0 1835 1219 0 1219 0 30 -52z
m792 -94 l0 -146 -42 7 c-181 30 -379 134 -481 252 l-29 33 276 0 276 0 0
-146z"/>
<path d="M2766 4315 c-85 -30 -138 -120 -138 -234 0 -101 10 -117 78 -131 71
-15 135 -6 197 28 89 48 137 129 123 207 -10 54 -68 112 -129 130 -61 18 -81
18 -131 0z m145 -103 c54 -49 37 -109 -45 -157 -43 -25 -120 -36 -145 -21 -32
20 4 157 50 190 38 26 103 21 140 -12z"/>
<path d="M535 3401 c-125 -57 -141 -222 -29 -308 54 -40 146 -45 206 -10 102
59 120 207 36 283 -60 56 -140 69 -213 35z m151 -95 c37 -37 43 -70 20 -115
-26 -49 -99 -66 -145 -35 -59 42 -58 128 3 165 47 29 83 24 122 -15z"/>
<path d="M1069 3397 c-115 -61 -125 -233 -16 -305 56 -37 147 -42 202 -10 94
55 122 170 62 259 -52 77 -161 102 -248 56z m141 -72 c37 -19 50 -43 50 -90 0
-47 -44 -95 -89 -95 -108 0 -152 127 -63 183 34 21 65 21 102 2z"/>
<path d="M1625 3403 c-67 -35 -105 -95 -105 -165 0 -117 109 -197 235 -174 40
8 99 55 121 97 18 36 18 122 0 157 -19 36 -65 78 -99 91 -41 16 -117 13 -152
-6z m151 -97 c22 -22 34 -44 34 -60 0 -118 -155 -145 -200 -36 -16 40 2 85 44
111 47 29 83 24 122 -15z"/>
<path d="M2175 3406 c-66 -30 -107 -93 -107 -166 0 -63 27 -116 75 -148 34
-23 51 -27 112 -27 63 0 76 3 109 29 43 32 75 95 76 144 0 37 -23 97 -48 125
-47 52 -151 72 -217 43z m126 -82 c17 -8 37 -30 45 -50 12 -29 12 -39 0 -68
-44 -106 -196 -76 -196 40 0 35 59 94 94 94 15 0 41 -7 57 -16z"/>
<path d="M2715 3403 c-66 -35 -105 -95 -105 -162 0 -108 77 -181 191 -181 103
0 179 75 179 179 0 77 -32 127 -107 165 -40 20 -119 20 -158 -1z m151 -97 c25
-24 34 -43 34 -66 0 -46 -55 -100 -103 -100 -73 0 -124 77 -93 139 35 67 110
79 162 27z"/>
<path d="M509 2661 c-17 -13 -23 -29 -23 -56 0 -27 6 -43 23 -56 22 -18 65
-19 1198 -19 l1174 0 24 25 c30 30 32 64 4 99 l-20 26 -1179 0 c-1136 0 -1179
-1 -1201 -19z"/>
<path d="M511 2033 c-11 -10 -24 -32 -27 -50 -5 -26 -1 -37 19 -57 l26 -26
1180 0 1180 0 20 26 c28 35 26 69 -4 99 l-24 25 -1174 0 c-1104 0 -1176 -1
-1196 -17z"/>
<path d="M529 1409 c-25 -9 -49 -45 -49 -73 0 -7 9 -25 21 -40 l20 -26 1185 0
c1171 0 1184 0 1204 20 25 25 26 71 1 101 l-19 24 -1169 2 c-730 1 -1178 -2
-1194 -8z"/>
<path d="M501 754 c-24 -30 -25 -42 -11 -78 6 -17 21 -28 47 -36 27 -8 375
-10 1196 -8 l1159 3 19 24 c25 30 24 76 -1 101 -20 20 -33 20 -1204 20 l-1185
0 -20 -26z"/>
<linearGradient id="linear-gradient">
	
	<stop offset="0.04%%" stop-color="#2A2D5C"/>
	<stop offset="98.9%" stop-color="#A0B3D5"/>

</linearGradient>
</g>
</svg>
