<?xml version="1.0" standalone="no"?>
<!DOCTYPE svg PUBLIC "-//W3C//DTD SVG 20010904//EN"
 "http://www.w3.org/TR/2001/REC-SVG-20010904/DTD/svg10.dtd">
<svg version="1.0" xmlns="http://www.w3.org/2000/svg"
 width="416.000000pt" height="430.000000pt" viewBox="0 0 416.000000 430.000000"
 preserveAspectRatio="xMidYMid meet">


<g transform="translate(0.000000,430.000000) scale(0.100000,-0.100000)"
fill="url(#linear-gradient)" stroke="none">
<path d="M2098 4286 c-21 -7 -49 -21 -62 -29 -13 -9 -199 -186 -413 -394 -213
-208 -427 -416 -476 -462 -108 -105 -137 -158 -137 -251 0 -51 6 -78 25 -117
31 -61 164 -192 198 -194 45 -2 63 3 90 29 l27 26 0 -305 c0 -284 2 -307 21
-349 26 -58 62 -96 124 -128 l50 -27 640 0 c730 0 696 -4 778 84 72 77 77 106
77 435 l0 279 24 -22 c13 -12 40 -24 60 -28 36 -6 40 -3 131 88 83 83 95 101
110 153 20 67 15 124 -13 189 -24 54 -948 957 -1024 1001 -60 35 -168 45 -230
22z m618 -628 c260 -253 475 -466 478 -474 14 -36 5 -72 -27 -109 l-34 -39
-364 354 c-595 578 -531 520 -577 520 -39 0 -48 -8 -489 -434 l-448 -435 -32
31 c-38 37 -49 77 -31 111 23 43 936 921 969 933 17 6 43 9 57 6 16 -3 191
-167 498 -464z m-187 -283 l331 -320 0 -363 c0 -371 -2 -391 -39 -419 -11 -8
-57 -12 -136 -13 l-120 0 0 370 0 369 -23 23 c-22 23 -25 23 -336 26 -198 2
-323 -1 -340 -8 -54 -20 -57 -46 -54 -431 l3 -349 -121 0 c-117 0 -121 1 -145
26 l-24 26 -2 371 -3 372 333 322 c182 177 335 321 339 320 4 -1 155 -146 337
-322z m-139 -745 l0 -250 -200 0 -200 0 0 250 0 250 200 0 200 0 0 -250z"/>
<path d="M1126 1904 c-159 -34 -274 -93 -522 -265 -246 -171 -316 -203 -473
-218 -74 -8 -88 -12 -108 -35 l-23 -27 0 -390 0 -390 25 -24 c17 -17 35 -25
60 -25 99 0 106 -2 1489 -341 810 -199 840 -205 939 -175 31 9 266 168 749
508 387 272 724 509 750 527 168 113 193 355 52 494 -103 102 -281 135 -403
73 -25 -12 -84 -50 -131 -83 -147 -104 -916 -583 -936 -583 -10 0 -122 27
-249 59 -126 33 -338 87 -470 120 -132 34 -250 67 -262 73 -13 6 -32 31 -44
54 -32 67 -11 135 54 174 30 19 53 20 337 20 285 0 308 2 350 21 60 27 88 54
116 114 57 120 11 250 -108 309 l-52 26 -535 -1 c-432 0 -549 -3 -605 -15z
m1124 -174 c23 -23 26 -58 6 -86 -14 -18 -32 -19 -338 -24 l-323 -5 -51 -27
c-61 -32 -119 -94 -147 -157 -54 -119 -6 -291 102 -365 44 -31 46 -31 610
-175 480 -123 524 -129 596 -88 79 46 852 536 949 602 l100 67 63 -4 c70 -4
103 -23 141 -78 28 -41 29 -103 3 -146 -18 -30 -159 -131 -1199 -861 -283
-198 -307 -213 -347 -213 -24 0 -383 83 -797 185 -414 102 -872 214 -1018 250
-146 35 -299 70 -341 76 l-77 12 -6 51 c-3 28 -6 152 -6 276 l0 225 90 22
c144 34 223 75 443 231 149 105 243 161 331 196 131 53 152 54 694 55 489 1
503 0 522 -19z"/>
<linearGradient id="linear-gradient">
	
	<stop offset="0.04%%" stop-color="#2A2D5C"/>
	<stop offset="98.9%" stop-color="#A0B3D5"/>

</linearGradient>
</g>
</svg>
